
<svg width="514" height="512" viewBox="0 0 514 512" fill="none" xmlns="http://www.w3.org/2000/svg">
<path d="M142.537 227.8L364.234 311.338L374.549 283.963L148.89 199.867L139.486 211.02L142.537 227.8Z" fill="#6B51FE"/>
<path d="M351.802 302.07L385.674 357.392L513.24 350.747L421.778 261.565L359.82 280.778L351.802 302.07Z" fill="#FFAD6C"/>
<path d="M89.0984 249.38L94.8775 262.819L108.316 257.04L114.2 270.721L181.291 241.584L175.512 228.145L186.061 215.646L162.945 161.89L149.506 167.669L143.727 154.23L130.288 160.009L121.619 139.851L108.18 145.63L102.401 132.191L88.9621 137.97L83.183 124.531L56.305 136.089L79.4212 189.845L25.6651 212.961L37.2232 239.839L50.6622 234.06L56.4413 247.499L69.8803 241.72L75.6594 255.159L89.0984 249.38Z" fill="#FFE375"/>
</svg>