<svg xmlns="http://www.w3.org/2000/svg" width="136" height="136" viewBox="0 0 136 136" fill="none">
  <path d="M70.344 30.7491C91.4795 31.2398 108.215 48.7705 107.724 69.9059C107.233 91.0413 89.7025 107.777 68.5671 107.286C47.4317 106.795 30.6965 89.2644 31.1872 68.129C31.6779 46.9949 49.2086 30.2584 70.344 30.7491Z" fill="#F48080"/>
  <path d="M69.6985 1.68683C106.138 2.53387 134.996 32.7622 134.151 69.2029C133.306 105.644 103.078 134.498 66.6383 133.651C30.1977 132.804 1.34121 102.576 2.18623 66.1353C3.03126 29.6947 33.2578 0.83977 69.6985 1.68683Z" fill="#EDF0F1"/>
  <path d="M70.344 30.7491C91.4795 31.2398 108.215 48.7705 107.724 69.9059C107.233 91.0413 89.7025 107.777 68.5671 107.286C47.4317 106.795 30.6965 89.2644 31.1872 68.129C31.6779 46.9949 49.2086 30.2584 70.344 30.7491Z" fill="#FFADAD"/>
  <path d="M71.2676 104.708C50.1321 104.217 33.397 86.6865 33.8877 65.551C34.0951 56.0444 37.8468 46.9583 44.4069 40.0747C36.5284 46.8963 31.448 56.8909 31.1871 68.129C30.6964 89.2645 47.4316 106.795 68.567 107.286C79.8077 107.547 90.0261 102.936 97.2046 95.3823C90.0241 101.616 80.7736 104.942 71.2676 104.708Z" fill="#F48080"/>
  <path d="M69.8539 51.8687C79.3249 52.0886 86.8244 59.9446 86.6045 69.4156C86.3846 78.8867 78.5287 86.3862 69.0576 86.1663C59.5865 85.9464 52.087 78.0904 52.3069 68.6194C52.5268 59.1483 60.3828 51.6488 69.8539 51.8687Z" fill="#35495E"/>
  <path d="M81.8266 48.1909C86.923 48.3092 90.9575 52.5396 90.8391 57.64C90.7207 62.7404 86.4942 66.779 81.3977 66.6607C76.3039 66.5424 72.2668 62.312 72.3852 57.2116C72.5036 52.1111 76.7327 48.0726 81.8266 48.1909Z" fill="white"/>
</svg>