<svg xmlns="http://www.w3.org/2000/svg" width="24" height="24" viewBox="0 0 24 24" fill="none">
  <path d="M5.51216 18.4203C5.31669 18.3812 5.16032 18.3421 4.96485 18.2639C4.76939 18.1857 4.61302 18.1467 4.45665 18.0685C4.10481 17.9121 3.79207 17.7166 3.47932 17.4821C2.85384 17.0521 2.34563 16.4657 1.9547 15.762C1.56377 15.0974 1.32921 14.3155 1.29012 13.5728C1.25103 13.1818 1.29012 12.83 1.32921 12.4391C1.3683 12.2436 1.4074 12.0872 1.44649 11.8918C1.48558 11.6963 1.56377 11.5399 1.60286 11.3445L1.64195 11.8918C1.64195 12.0872 1.68105 12.2436 1.72014 12.4391C1.75923 12.7909 1.83742 13.1428 1.91561 13.4555C2.07198 14.1201 2.30653 14.7456 2.65837 15.332C3.01021 15.9184 3.40114 16.4657 3.90934 16.9739C4.1439 17.2084 4.41755 17.443 4.6912 17.6775C4.80848 17.7948 4.96485 17.9121 5.12123 18.0294L5.51216 18.4203Z" fill="#42ADE2"/>
  <path d="M5.39482 19.8278C5.27755 19.906 5.12117 19.9451 4.9648 19.9842C4.80843 20.0232 4.69115 20.0623 4.53478 20.0623C4.26113 20.1014 3.94839 20.1405 3.63564 20.1014C3.04925 20.0623 2.42376 19.906 1.91555 19.6323C1.36825 19.3587 0.899137 18.9286 0.586394 18.4204C0.430022 18.1859 0.273651 17.9122 0.156372 17.6386C0.117279 17.5213 0.0781858 17.3649 0.0390929 17.2086C0.0390929 17.0913 0 16.974 0 16.8176C0.117279 16.9349 0.195465 17.0522 0.273651 17.1304C0.390929 17.2476 0.469115 17.3649 0.547301 17.4431C0.742766 17.6386 0.899138 17.834 1.0946 17.9904C1.48553 18.3423 1.87646 18.655 2.34558 18.8896C2.7756 19.1241 3.28381 19.3196 3.75292 19.4759C3.98748 19.5541 4.26113 19.5932 4.53478 19.6714C4.65206 19.7105 4.80843 19.7105 4.92571 19.7496C5.12117 19.7887 5.23845 19.7887 5.39482 19.8278Z" fill="#42ADE2"/>
  <path d="M14.2295 0.828613C14.425 0.867706 14.5813 0.945892 14.7768 1.02408C14.9723 1.10226 15.1286 1.18045 15.285 1.25864C15.6368 1.4541 15.9496 1.64956 16.2623 1.88412C16.8878 2.35324 17.396 2.97872 17.7479 3.6824C18.0997 4.38607 18.2952 5.16793 18.2952 5.91069C18.2952 6.30162 18.2561 6.65346 18.1779 7.04439C18.1388 7.23985 18.0997 7.39623 18.0215 7.59169C17.9433 7.78715 17.9042 7.94353 17.826 8.0999L17.7869 7.5526C17.7869 7.35713 17.7869 7.20076 17.7479 7.0053L17.6306 5.94979C17.5133 5.28521 17.2787 4.62063 16.966 3.99514C16.6533 3.36965 16.2623 2.82235 15.7932 2.31414C15.5587 2.04049 15.285 1.80594 15.0504 1.53229C14.9332 1.41501 14.7768 1.29773 14.6204 1.18045L14.2295 0.828613Z" fill="#42ADE2"/>
  <path d="M17.6313 0.672119C17.7877 0.711212 17.905 0.750305 18.0223 0.828491C18.1396 0.867584 18.2959 0.94577 18.4132 1.02396C18.6478 1.18033 18.8823 1.3367 19.1169 1.53216C19.5469 1.92309 19.8987 2.39221 20.0942 2.93951C20.3288 3.48681 20.4069 4.0732 20.3288 4.6596C20.2897 4.93325 20.2115 5.2069 20.1333 5.48055C20.0942 5.59783 20.016 5.7542 19.9769 5.87148C19.8987 5.98876 19.8596 6.10604 19.7424 6.22332V5.44146C19.7424 5.16781 19.7033 4.93325 19.7033 4.69869C19.6251 4.19048 19.5469 3.72137 19.3514 3.29135C19.156 2.82223 18.9214 2.4313 18.6478 2.00128C18.4914 1.80581 18.335 1.57126 18.1786 1.37579C18.1005 1.25851 18.0223 1.18033 17.905 1.06305C17.8268 0.867584 17.7095 0.750305 17.6313 0.672119Z" fill="#42ADE2"/>
  <path d="M3.12777 6.49673C2.34591 6.84857 2.07226 7.7868 2.4241 8.56865L7.34981 18.8501L10.0863 17.56L5.1606 7.2395C4.80877 6.45764 3.90963 6.1058 3.12777 6.49673Z" fill="#FFD755"/>
  <path d="M16.0673 14.6672L18.9602 13.2989L13.3308 1.57104C12.9398 0.789179 12.0016 0.437343 11.1807 0.828272C10.3988 1.2192 10.047 2.15743 10.4379 2.97838L16.0673 14.6672Z" fill="#FFD755"/>
  <path d="M11.2194 0.789098C11.1412 0.828191 11.063 0.867284 10.9849 0.94547C11.7276 0.750005 12.5095 1.10184 12.8613 1.80551L18.4907 13.5334L18.9989 13.2988L13.3695 1.57096C12.9786 0.750005 12.0404 0.398169 11.2194 0.789098Z" fill="#EBA352"/>
  <path d="M10.0861 17.5211L13.0962 16.0747L7.34955 4.11224C6.95862 3.29129 5.9422 2.90036 5.12125 3.29129C4.3003 3.68222 3.94846 4.69864 4.33939 5.51959L10.0861 17.5211Z" fill="#FFD755"/>
  <path d="M5.12176 3.33027C5.04358 3.36936 4.96539 3.40845 4.88721 3.48664C5.62997 3.29117 6.49002 3.64301 6.84185 4.38578L10.3993 11.8525L11.2594 12.3607L7.35006 4.15122C6.95913 3.29117 5.98181 2.93934 5.12176 3.33027Z" fill="#EBA352"/>
  <path d="M12.6266 15.136L15.6367 13.6896L9.89007 1.72713C9.49914 0.906175 8.48273 0.515246 7.66178 0.945268C6.84083 1.3362 6.48899 2.35261 6.87992 3.17357L12.6266 15.136Z" fill="#FFD755"/>
  <path d="M7.66132 0.906194C7.58313 0.945287 7.50494 1.02347 7.42676 1.06257C8.16952 0.867101 9.02957 1.21894 9.3814 1.9617L13.408 10.4058L14.268 10.914L9.88961 1.72715C9.49868 0.867101 8.48227 0.515265 7.66132 0.906194Z" fill="#EBA352"/>
  <path d="M3.12714 6.49637C3.04895 6.53547 2.97076 6.57456 2.89258 6.65275C3.59625 6.45728 4.33902 6.80912 4.65176 7.51279L7.58373 13.6504L8.44378 14.1586L5.15997 7.27823C4.80813 6.45728 3.90899 6.10544 3.12714 6.49637Z" fill="#EBA352"/>
  <path d="M22.9868 5.32397C21.9313 4.50302 20.2112 5.40216 19.3511 8.21685C18.7647 10.1715 18.6866 10.7579 17.4356 11.3443L16.7319 9.89785C16.7319 9.89785 5.62952 15.2536 6.05954 16.1136C6.05954 16.1136 7.3887 20.2575 9.65609 22.173C13.0181 25.0659 20.8758 21.9776 21.2276 14.5108C21.4231 10.1715 24.1205 6.22311 22.9868 5.32397Z" fill="#FFD755"/>
  <path d="M22.9866 5.32394C22.7911 5.16757 22.5566 5.08939 22.322 5.05029C22.3611 5.08939 22.4393 5.08939 22.4784 5.12848C23.6512 6.02762 22.4393 8.09954 21.7747 9.976C21.2274 11.4615 20.7583 12.9862 20.8365 14.4717C21.1492 20.9611 14.6207 24.0495 10.7114 22.8767C14.5425 24.4795 21.6574 21.4302 21.3447 14.6672C21.2665 13.1816 21.6965 11.7352 22.2829 10.1715C22.9084 8.29501 24.1203 6.22308 22.9866 5.32394Z" fill="#EBA352"/>
  <path d="M17.7872 11.188C15.3634 11.4616 11.8059 14.9409 14.3079 18.7329C12.4705 14.9018 15.4807 12.3217 17.3962 11.4225C17.5917 11.2662 17.7872 11.188 17.7872 11.188Z" fill="#EBA352"/>
</svg>