<svg xmlns="http://www.w3.org/2000/svg" width="92" height="135" viewBox="0 0 92 135" fill="none">
  <path d="M61.2377 115.097L33.772 115.734L33.8344 118.423L61.3001 117.786L61.2377 115.097Z" fill="#A295EE" stroke="#6B51FE" stroke-width="0.008"/>
  <path d="M60.6951 122.736L60.0142 123.294L56.5704 126.112L38.9666 126.521L35.5151 123.863L34.833 123.336L60.6951 122.736Z" fill="#A295EE" stroke="#6B51FE" stroke-width="0.008"/>
  <path d="M61.06 107.453L33.5942 108.09L33.6571 110.797L61.1228 110.159L61.06 107.453Z" fill="#A295EE" stroke="#6B51FE" stroke-width="0.008"/>
  <path d="M61.0111 105.344L61.0711 107.927L33.6054 108.565L33.5454 105.982C39.9771 105.832 47.2872 105.663 47.2872 105.663C47.2872 105.663 54.5797 105.493 61.0111 105.344Z" fill="#646363" stroke="#6B51FE" stroke-width="0.008"/>
  <path d="M60.891 100.16L33.4253 100.798L33.4877 103.487L60.9534 102.849L60.891 100.16Z" fill="#A295EE" stroke="#6B51FE" stroke-width="0.008"/>
  <path d="M60.8417 98.0513L60.9017 100.635L33.436 101.272L33.376 98.689C39.8077 98.5396 47.1177 98.3699 47.1177 98.3699C47.1177 98.3699 54.4103 98.2006 60.8417 98.0513Z" fill="#646363" stroke="#6B51FE" stroke-width="0.008"/>
  <path d="M61.1884 112.953L61.2484 115.536L33.7826 116.174L33.7227 113.591C40.1543 113.441 47.4644 113.272 47.4644 113.272C47.4644 113.272 54.7569 113.102 61.1884 112.953Z" fill="#646363" stroke="#6B51FE" stroke-width="0.008"/>
  <path d="M60.6951 122.736L60.0142 123.294L35.5151 123.863L34.833 123.336L60.6951 122.736Z" fill="#646363" stroke="#6B51FE" stroke-width="0.008"/>
  <path d="M64.5393 104.33L64.5662 105.49C64.5903 106.527 63.4499 107.397 62.0266 107.43L32.628 108.113C31.2221 108.146 30.0429 107.329 30.0188 106.292L29.9919 105.132C29.9678 104.096 31.1081 103.225 32.5138 103.193L61.9126 102.51C63.3357 102.477 64.5152 103.294 64.5393 104.33Z" fill="#E8E5DE" stroke="#6B51FE" stroke-width="0.008"/>
  <path d="M64.7165 111.957L64.7434 113.116C64.7675 114.153 63.6276 115.041 62.2042 115.074L32.8056 115.757C31.3998 115.79 30.2201 114.955 30.1961 113.918L30.1691 112.759C30.1451 111.722 31.2854 110.852 32.691 110.819L62.0898 110.136C63.513 110.103 64.6924 110.92 64.7165 111.957Z" fill="#E8E5DE" stroke="#6B51FE" stroke-width="0.008"/>
  <path d="M64.8933 119.583L64.9206 120.76C64.9447 121.797 63.8044 122.668 62.381 122.701L32.9824 123.383C31.5765 123.416 30.3973 122.599 30.3732 121.563L30.3459 120.385C30.343 120.262 30.3573 120.121 30.3898 119.997C30.6161 119.148 31.638 118.474 32.868 118.445L62.2668 117.763C63.6897 117.73 64.8692 118.546 64.8933 119.583Z" fill="#E8E5DE" stroke="#6B51FE" stroke-width="0.008"/>
  <path d="M55.976 125.639L39.6942 126.017L37.998 126.056C38.0905 130.037 42.567 133.161 47.9969 133.035C53.4267 132.909 57.7534 129.58 57.661 125.6L55.976 125.639Z" fill="#6B51FE" stroke="#6B51FE" stroke-width="0.008"/>
  <path d="M89.8334 44.2281C90.117 56.441 85.4357 67.6087 77.6088 75.8076C69.7991 83.9888 64.993 86.7552 64.5884 99.6171L60.8805 99.7032C57.243 99.7877 52.7093 99.8929 52.7093 99.8929L41.0765 100.163C41.0765 100.163 36.9471 100.259 33.415 100.341L29.1977 100.439C28.3246 89.3294 24.5184 85.9367 18.2133 80.1757C17.2252 79.2669 16.1832 78.3065 15.0863 77.2591C6.88689 69.4323 1.69236 58.4942 1.4088 46.281C1.12525 34.0679 5.80655 22.9005 13.6341 14.7191C21.4438 6.53786 32.3817 1.32579 44.5946 1.04225C54.4001 0.814593 63.5419 3.80251 70.9952 9.04443C72.8181 10.3208 74.5388 11.7401 76.1568 13.2675C76.7138 13.7818 77.2541 14.3319 77.7766 14.8826C78.7864 15.9668 79.7623 17.1047 80.6687 18.279C86.2336 25.4816 89.6062 34.4404 89.8334 44.2281Z" fill="#9DECFA" stroke="#6B51FE" stroke-width="0.008"/>
  <path opacity="0.2" d="M79.1125 16.3812L18.1786 80.2118C17.2071 79.2676 16.1647 78.2894 15.0861 77.2594C6.88689 69.4323 1.69236 58.4942 1.4088 46.281C1.12525 34.0679 5.80655 22.9005 13.6341 14.7191C21.4438 6.53786 32.3817 1.32579 44.5946 1.04225C54.4001 0.814593 63.5419 3.80251 70.9952 9.04443C72.8181 10.3208 74.5388 11.7401 76.1568 13.2675C76.7138 13.7818 77.2541 14.3319 77.7766 14.8826C78.2278 15.3821 78.6789 15.8813 79.1125 16.3812Z" fill="white" stroke="#6B51FE" stroke-width="0.008"/>
  <path opacity="0.2" d="M27.0503 24.8314C31.6636 20.2231 33.3186 14.4004 30.7469 11.8258C28.1752 9.25132 22.3506 10.9 17.7374 15.5082C13.1241 20.1164 11.4691 25.9392 14.0408 28.5137C16.6125 31.0882 22.437 29.4396 27.0503 24.8314Z" fill="white" stroke="#6B51FE" stroke-width="0.008"/>
</svg>