<svg xmlns="http://www.w3.org/2000/svg" width="200" height="191" viewBox="0 0 200 191" fill="none">
  <path d="M135.312 178.657H64.6895L69.7312 166.86L71.6512 162.374L75.841 152.573H124.161L128.351 162.374L130.27 166.86L135.312 178.657Z" fill="#ABB9C6"/>
  <path d="M128.351 162.374H71.6511L75.841 152.573H124.161L128.351 162.374Z" fill="#93A0AA"/>
  <path d="M153.696 183.145H46.3027C50.1273 177.532 56.4801 174.173 63.2723 174.173H136.727C143.519 174.173 149.871 177.532 153.696 183.145Z" fill="#B6C7D3"/>
  <path d="M200 13.0938V140.825C200 148.055 194.142 153.918 186.911 153.918H13.0895C5.8582 153.918 0 148.055 0 140.825V13.0938C0 5.86289 5.8582 0 13.0895 0H186.911C194.142 0 200 5.86289 200 13.0938Z" fill="#ABB9C6"/>
  <path d="M200 13.0938V140.825C200 148.055 194.142 153.918 186.911 153.918H70.6633L80.254 130.53L133.777 0H186.911C194.142 0 200 5.86289 200 13.0938Z" fill="#C5D6E2"/>
  <path d="M200 13.0938V130.53H0V13.0938C0 5.86289 5.8582 0 13.0895 0H186.911C194.142 0 200 5.86289 200 13.0938Z" fill="#7FE3F7"/>
  <path d="M200 13.0938V130.53H80.2539L133.777 0H186.911C194.142 0 200 5.86289 200 13.0938Z" fill="#9DECFA"/>
  <path d="M100.001 145.171C98.6538 145.171 97.4093 144.337 96.8921 143.094C96.3199 141.719 96.7519 140.089 97.9163 139.166C100.354 137.232 103.983 139.544 103.277 142.565C102.925 144.068 101.55 145.171 100.001 145.171Z" fill="#93A0AA"/>
  <path d="M200 13.0938V130.53H80.2539L133.777 0H186.911C194.142 0 200 5.86289 200 13.0938Z" fill="#9DECFA"/>
  <path d="M200 13.0938V130.53H80.2539L133.777 0H186.911C194.142 0 200 5.86289 200 13.0938Z" fill="#9DECFA"/>
  <path d="M180.166 86.3368V180.178C180.166 184.861 176.371 188.656 171.688 188.656H122.704C122.426 188.656 122.157 188.643 121.888 188.616C117.586 188.207 114.226 184.583 114.226 180.178V86.3368C114.226 81.6536 118.021 77.8586 122.704 77.8586H171.688C176.371 77.8586 180.166 81.6536 180.166 86.3368Z" fill="#8E9AA5"/>
  <path d="M180.166 86.3368V180.178C180.166 184.861 176.371 188.656 171.688 188.656H122.704C122.426 188.656 122.157 188.643 121.887 188.616L167.301 77.8586H171.688C176.371 77.8586 180.166 81.6536 180.166 86.3368Z" fill="#A6B2BC"/>
  <path d="M180.166 86.3368V168.022H114.226V86.3368C114.226 81.6536 118.021 77.8586 122.704 77.8586H171.688C176.371 77.8586 180.166 81.6536 180.166 86.3368Z" fill="#7FE3F7"/>
  <path d="M180.166 86.3368V168.022H130.33L167.301 77.8586H171.688C176.371 77.8586 180.166 81.6536 180.166 86.3368Z" fill="#9DECFA"/>
  <path d="M171.688 190.45H122.704C122.368 190.45 122.043 190.434 121.71 190.401C116.424 189.899 112.432 185.504 112.432 180.178V86.3367C112.432 80.6727 117.04 76.0645 122.704 76.0645H171.688C177.352 76.0645 181.96 80.6727 181.96 86.3367V180.178C181.96 185.842 177.352 190.45 171.688 190.45ZM122.704 79.6527C119.018 79.6527 116.02 82.6512 116.02 86.3363V180.177C116.02 183.643 118.616 186.502 122.057 186.829C122.278 186.851 122.487 186.861 122.704 186.861H171.688C175.373 186.861 178.371 183.863 178.371 180.178V86.3367C178.371 82.6512 175.373 79.6531 171.688 79.6531L122.704 79.6527Z" fill="#A6B2BC"/>
  <path d="M147.195 181.703C144.138 181.703 142.692 177.769 145.011 175.781C146.117 174.832 147.762 174.719 148.992 175.496C150.155 176.231 150.764 177.648 150.492 178.998C150.18 180.551 148.783 181.703 147.195 181.703Z" fill="#727C84"/>
  <path d="M156.392 90.8673H138C136.762 90.8673 135.757 89.863 135.757 88.6243C135.757 87.3856 136.762 86.3813 138 86.3813H156.392C157.63 86.3813 158.635 87.3856 158.635 88.6243C158.635 89.863 157.63 90.8673 156.392 90.8673Z" fill="#727C84"/>
</svg>