<svg xmlns="http://www.w3.org/2000/svg" width="38" height="38" viewBox="0 0 38 38" fill="none">
  <path d="M31.7979 6.54566C31.8008 6.54267 31.8038 6.53977 31.8069 6.53678V6.53662C31.8039 6.53977 31.8009 6.54275 31.7979 6.54566Z" fill="#6B51FE"/>
  <path d="M29.807 14.6714L22.8838 21.5946L21.1817 19.8926C21.3832 19.4747 21.5377 19.1219 21.6515 18.848L20.9336 18.4552L21.4765 17.4633L24.8627 14.0771L29.807 14.6714Z" fill="#EDEDEC"/>
  <path d="M23.9013 13.1156L20.5151 16.5018L19.5233 17.0448L19.1305 16.327C18.8569 16.441 18.5041 16.5955 18.0858 16.7966L16.3838 15.0946L23.307 8.17139L23.9013 13.1156Z" fill="#EDEDEC"/>
  <path d="M36.5695 0.963776C36.5283 1.02245 36.4814 1.08128 36.4226 1.14597C36.2521 1.3516 35.2825 2.32725 34.9415 2.66804C34.4009 2.1274 33.249 2.39772 32.3732 3.27337C31.4976 4.14901 31.2331 5.29498 31.7738 5.8417C31.6621 5.95335 31.5446 6.06499 31.4329 6.18265C31.4388 6.17664 31.4388 6.17664 31.4388 6.17085C31.186 5.91804 30.6513 6.0414 30.2398 6.45297C29.8284 6.86431 29.7051 7.40495 29.9578 7.65761C29.6346 7.9809 29.3408 8.27473 29.0997 8.5156C28.5943 9.02108 28.2887 9.32671 28.2887 9.32671L27.5893 9.5207L24.5627 10.3728L23.5988 10.6373L22.5939 10.9194L20.1961 11.5954L19.7553 11.7187L18.9736 11.9361L27.5601 3.34985L35.7997 0.193838L36.3051 0C36.693 0.387825 36.8869 0.51119 36.5695 0.963776Z" fill="#F6F5F5"/>
  <path d="M34.7069 5.60292C35.5822 4.72757 35.8514 3.57753 35.3081 3.03421C35.6497 2.6929 36.6292 1.72304 36.8307 1.55383C37.4353 1.04628 37.5457 1.23767 37.9811 1.67304L34.6287 10.4181L26.0449 19.0019L28.6507 9.69155C28.6507 9.69155 29.3239 9.01842 30.3216 8.02067C30.576 8.27512 31.1146 8.14908 31.5245 7.73915C31.9345 7.32922 32.0605 6.79066 31.8061 6.53628C31.8032 6.5391 31.8006 6.54177 31.7978 6.54459C31.911 6.43139 32.0245 6.31782 32.1381 6.20425C32.6814 6.74748 33.8315 6.47827 34.7069 5.60292Z" fill="#F6F5F5"/>
  <path d="M26.5009 15.4276C28.6825 15.4276 30.451 13.6591 30.451 11.4775C30.451 9.29588 28.6825 7.52734 26.5009 7.52734C24.3193 7.52734 22.5508 9.29588 22.5508 11.4775C22.5508 13.6591 24.3193 15.4276 26.5009 15.4276Z" fill="#D4D4D4"/>
  <path d="M26.5007 13.7139C27.7357 13.7139 28.7368 12.7127 28.7368 11.4778C28.7368 10.2428 27.7357 9.2417 26.5007 9.2417C25.2658 9.2417 24.2646 10.2428 24.2646 11.4778C24.2646 12.7127 25.2658 13.7139 26.5007 13.7139Z" fill="#F6F5F5"/>
  <path d="M17.877 32.7611C15.3841 34.983 13.1687 36.2276 10.0016 37.7506C9.04727 38.2094 7.88046 37.9442 7.10948 37.1732C6.9258 36.9889 6.76409 36.776 6.6333 36.5372C5.95565 35.2982 6.36462 33.8333 7.54716 33.2645C13.7836 30.2659 16.8412 26.8475 18.857 23.9594C19.9768 22.3543 20.7144 20.9243 21.1692 19.9048C21.344 19.5135 21.4766 19.1827 21.5736 18.9254C21.7045 18.5788 21.77 18.366 21.7839 18.3193L25.0045 19.4735L26.5493 20.0275C26.5349 20.0791 26.3825 20.6192 26.0255 21.5002C25.5229 22.7389 24.6163 24.6519 23.1224 26.8272C21.6441 28.9794 19.8791 30.9762 17.877 32.7611Z" fill="#563EF0"/>
  <path d="M19.6676 16.1909L19.6617 16.1968C19.6265 16.2086 19.4501 16.2615 19.1563 16.3673C19.1211 16.3791 19.0857 16.3908 19.0505 16.4026C18.7978 16.5024 18.4628 16.6317 18.0749 16.8081C17.0523 17.2665 15.6242 18.0011 14.0198 19.1236C11.1284 21.1393 7.71382 24.1955 4.71656 30.4309C4.16413 31.577 2.77128 32.0001 1.55477 31.4007C1.51953 31.3889 1.47836 31.3654 1.44312 31.3477C1.20218 31.2126 0.990611 31.0539 0.802559 30.8659C0.579196 30.6425 0.402865 30.3898 0.273639 30.1195C-0.0613678 29.4436 -0.102465 28.656 0.226608 27.9743C1.74875 24.8067 2.99472 22.5969 5.21618 20.0992C7.00279 18.101 9.00096 16.332 11.1519 14.8568C13.3265 13.3641 15.2423 12.4533 16.4765 11.9536C17.358 11.5952 17.8988 11.4423 17.9516 11.4307L18.5041 12.9704V12.9763L19.6618 16.1909C19.6676 16.1909 19.6676 16.1909 19.6676 16.1909Z" fill="#563EF0"/>
  <path opacity="0.1" d="M19.6675 16.1909C19.6675 16.1909 19.6675 16.1909 19.6616 16.1909L18.5038 12.9763V12.9704L17.9514 11.4307C17.8985 11.4423 17.3578 11.5952 16.4763 11.9536C16.1977 12.0664 15.8799 12.2034 15.5366 12.3601L15.5947 12.4593L16.7113 14.387L18.1058 16.7947C18.4796 16.6261 18.8049 16.4995 19.0503 16.4026C19.0856 16.3908 19.1209 16.3791 19.1561 16.3673C19.45 16.2615 19.6263 16.2086 19.6615 16.1968L19.6675 16.1909Z" fill="#040000"/>
  <path d="M22.4883 15.5501L22.365 15.6088L20.3844 16.6314L19.4617 17.1075L19.0503 16.4023L19.0326 16.367L17.5927 13.881L16.4761 11.9533L16.3762 11.7828C16.1882 11.448 16.288 11.0482 16.5995 10.8895L19.0619 9.62012L19.8788 11.0307L20.0845 11.3891V11.395L20.1962 11.5948L22.1121 14.9035L22.4647 15.5148L22.4883 15.5501Z" fill="#563EF0"/>
  <path opacity="0.1" d="M26.5496 20.0275L25.0048 19.4735L21.7842 18.3193C21.7703 18.366 21.7048 18.5788 21.5738 18.9254C21.4888 19.1511 21.3705 19.4424 21.2261 19.7725L21.2908 19.81L23.8118 21.268L25.6642 22.3393C25.8007 22.0362 25.924 21.7512 26.0258 21.5002C26.3828 20.6192 26.5352 20.079 26.5496 20.0275Z" fill="#040000"/>
  <path d="M26.1979 21.6001L26.0254 21.5001L24.0943 20.3835L21.5735 18.9254L20.8696 18.5186L21.3464 17.593L22.3677 15.6104L22.4289 15.4917L22.4653 15.5128L23.0744 15.8649L26.5835 17.8943L28.3552 18.9188L27.0894 21.3762C26.9281 21.6897 26.5269 21.7899 26.1979 21.6001Z" fill="#563EF0"/>
  <path opacity="0.05" d="M36.831 1.5539C36.6295 1.72303 35.65 2.69282 35.3084 3.03435C35.8517 3.57759 35.5825 4.72771 34.7071 5.60299C33.8318 6.47834 32.6817 6.74755 32.1384 6.20416C32.0276 6.31492 31.9168 6.42582 31.8064 6.53635C32.0608 6.79072 31.9348 7.32921 31.5249 7.73914C31.1149 8.14907 30.5764 8.27518 30.3219 8.02066C29.9968 8.3458 29.7109 8.63178 29.4668 8.87584C29.4102 8.81152 29.3553 8.74609 29.2938 8.68459L23.7075 14.2709C23.8718 14.4352 24.0487 14.5781 24.2323 14.7072L23.0748 15.8648H23.0747L22.4657 15.5128L22.3677 15.6108L21.3465 17.593L20.8698 18.5187L21.5736 18.9255C21.4767 19.1827 21.344 19.5136 21.1692 19.9049C20.7144 20.9244 19.9768 22.3544 18.857 23.9595C16.8412 26.8475 13.7836 30.266 7.54716 33.2646C6.36462 33.8335 5.95565 35.2984 6.6333 36.5374C6.76409 36.7761 6.92573 36.9891 7.10948 37.1733C7.88053 37.9443 9.04734 38.2095 10.0017 37.7508C13.1688 36.2277 15.3841 34.983 17.877 32.7612C19.8791 30.9763 21.6442 28.9795 23.1225 26.8271C24.6164 24.6518 25.5229 22.7389 26.0257 21.5002L26.1982 21.6001C26.5273 21.7901 26.9285 21.6898 27.0897 21.3763L28.3555 18.9189L26.9444 18.1028L34.6289 10.4183L37.9813 1.67296C37.5459 1.23766 37.4356 1.04627 36.831 1.5539Z" fill="#040000"/>
</svg>